<?xml version="1.0" encoding="utf-8"?>
<!-- Generator: Adobe Illustrator 17.1.0, SVG Export Plug-In . SVG Version: 6.00 Build 0)  -->
<!DOCTYPE svg PUBLIC "-//W3C//DTD SVG 1.1//EN" "http://www.w3.org/Graphics/SVG/1.1/DTD/svg11.dtd">
<svg version="1.1" id="Ebene_1" xmlns="http://www.w3.org/2000/svg" xmlns:xlink="http://www.w3.org/1999/xlink" x="0px" y="0px"
	 viewBox="0 0 595.3 841.9" enable-background="new 0 0 595.3 841.9" xml:space="preserve">
<g>
	<defs>
		<rect id="SVGID_1_" y="260.9" width="595" height="320"/>
	</defs>
	<clipPath id="SVGID_2_">
		<use xlink:href="#SVGID_1_"  overflow="visible"/>
	</clipPath>
	<path clip-path="url(#SVGID_2_)" d="M112.6,407.5c12.9,4,26.4,10,26.4,28.9c0,19.5-12.5,30.8-37.7,30.8c-20.8,0-33.2-6.9-33.2-6.9
		c0-5.6,1.8-11,5.4-14.3c0,0,12.9,4.8,26.8,4.8c12.1,0,19.1-4.4,19.1-13.9c0-10.6-10.9-12.9-22.6-16.2c-13.5-3.9-28.2-9.4-28.2-28.5
		c0-18.1,12.1-30.3,37.3-30.3c19.5,0,28,5.2,28,5.2c0,5-1.8,10.6-5.2,13.7c0,0-9.5-3.1-20.8-3.1c-13.5,0-20.2,4.8-20.2,13.9
		C87.6,401.2,100.1,403.5,112.6,407.5 M413.1,362.1c-12.5,0-22.8,4.2-30,12.1v-8.9c0,0-3.6-1.3-9.9-1.3c-6.9,0-9.9,1.3-9.9,1.3V464
		c0,0,3,1.3,9.9,1.3c6.4,0,9.9-1.3,9.9-1.3v-74c5.2-7.7,13.7-12.3,22.4-12.3c12.7,0,18.5,6.2,18.5,17V464c0,0,3.2,1.3,9.9,1.3
		c6.6,0,9.9-1.3,9.9-1.3v-72.8C443.8,373.8,432.9,362.1,413.1,362.1 M501,407.5c-12.5-4-25-6.4-25-15.8c0-9.1,6.8-13.9,20.2-13.9
		c11.3,0,20.8,3.1,20.8,3.1c3.4-3.1,5.2-8.7,5.2-13.7c0,0-8.5-5.2-28-5.2c-25.2,0-37.3,12.1-37.3,30.3c0,19.1,14.7,24.7,28.2,28.5
		c11.7,3.3,22.6,5.6,22.6,16.2c0,9.4-6.9,13.9-19.1,13.9c-13.9,0-26.8-4.8-26.8-4.8c-3.6,3.3-5.4,8.7-5.4,14.3
		c0,0,12.3,6.9,33.1,6.9c25.2,0,37.7-11.4,37.7-30.8C527.4,417.6,513.9,411.6,501,407.5 M298.1,417.8c11.9,0,19.8-6.6,19.8-21
		c0-14.5-7.9-21.2-19.8-21.2c-11.9,0-20,6.7-20,21.2C278,411.2,286.2,417.8,298.1,417.8 M328.8,482.5c0-15.8-28.2-11.8-46.1-17.2
		c-5,3.9-9.1,10.4-9.1,17.5c0,9.6,7.3,17,23.6,17C317.7,499.9,328.8,492.7,328.8,482.5 M348.1,361.5c0,0,0.2,0.9,0.3,2
		c1.2,4.1,1.1,10-0.5,13.8l-16.5-0.8c3.8,5.4,5.6,12.1,5.6,20.2c0,21.6-13.3,34.7-38.9,34.7c-3.2,0-6.2-0.2-8.7-0.6
		c-2.2,2.9-4.2,6.9-3.8,11.2c2.2,17.7,62.1-1.2,62.1,38.5c0,18.9-18.9,33-51,33c-29.8,0-42.3-11.4-42.3-26.8
		c0-14.6,12.3-23.5,17.7-26.6c-2.8-2.7-4.4-6.4-4.4-11.2c0-8.5,5-16.2,9.5-21.4c-11.9-5.4-18.1-16.2-18.1-30.8
		c0-8.6,2.1-15.8,6.3-21.4h-29.1l-35,104.8c-7.1,21.2-14.1,33.3-35.5,33.3c-6.6,0-10.9-1.9-10.9-1.9c0-0.2-1.4-3.3-1.4-7.1
		c0-4.2,1.4-7.5,1.6-7.7c0,0,4.4,0.8,8.9,0.8c8.9,0,13.5-1.4,19.2-19.6c1.4-4.5,1.7-8.4,1.1-12.1c-1-5.7-40.7-100.5-40.7-100.5
		s3.8-1.3,10.3-1.3c6.7,0,10.3,1.3,10.3,1.3l22.6,58.6c5,13.3,6.9,22.5,6.9,22.5h0.8c0,0,2-9.1,6.4-22.4l19.3-57.7
		c0.6-3.2,3.8-4.9,7.4-4.9H348.1"/>
</g>
</svg>
